<svg width="161" height="27" fill="none" xmlns="http://www.w3.org/2000/svg"><mask id="path-1-inside-1_24223_3192" fill="#fff"><path fill-rule="evenodd" clip-rule="evenodd" d="M7.158 20.412c-2.747 0-4.625-2.335-4.625-5.375 0-3.072 1.928-5.42 4.67-5.42 1.21 0 2.483.455 3.46 1.211l1.1-1.732c-1.274-1.103-3.059-1.712-4.75-1.712C3.024 7.384 0 10.706 0 15.094c0 4.303 2.93 7.582 6.925 7.582 1.706 0 3.602-.603 4.857-1.687l-1.119-1.777c-.93.713-2.25 1.2-3.506 1.2h.001Zm18.514-8.198c0-2.678-1.797-4.627-4.887-4.627h-4.922V22.46h2.455v-5.576h2.04l2.955 5.581h2.909l-3.356-5.94c1.766-.687 2.807-2.284 2.807-4.311h-.001Zm8.39-4.627-4.98 14.867h2.563l1.157-3.735h5.296l1.17 3.735h2.696L36.916 7.59h-2.865l.011-.003Zm21.02 1.84v-1.83h-9.883v2.162h6.747l-6.991 10.905v1.803h10.232v-2.189h-7.122l7.04-10.846-.023-.004Zm9.502 4.39-3.41-6.222h-2.852l4.966 8.679v6.184h2.47V16.26l5.063-8.673h-2.67l-3.565 6.225-.002.004Zm17.15.776c1.077-.595 1.691-1.674 1.691-3.14 0-2.436-1.678-3.856-4.475-3.856h-4.638v14.865h5.416c2.742 0 4.57-1.745 4.57-4.208 0-1.884-1.091-3.225-2.592-3.66h.028Zm11.038-6.996-4.98 14.865h2.56l1.16-3.735h5.293l1.173 3.735h2.701L95.641 7.597H92.772Zm19.76 6.996c1.081-.595 1.702-1.674 1.702-3.14 0-2.436-1.665-3.856-4.475-3.856h-4.639v14.865h5.43c2.742 0 4.584-1.745 4.584-4.208 0-1.884-1.091-3.225-2.578-3.66h-.024Zm11.638-.777-3.397-6.22h-2.865l4.966 8.68v6.188h2.476v-6.202l5.048-8.665h-2.661l-3.574 6.22h.007Zm-16.593-4.04h1.883c1.378 0 2.315.558 2.315 1.925 0 1.417-.968 2.084-2.196 2.084h-2.006V9.777h.004Zm2.613 10.494h-2.615v-4.398h2.438c1.564 0 2.592.704 2.592 2.206s-1.028 2.192-2.418 2.192h.003Zm-18.032-3.65 1.992-6.395 2.019 6.387h-4.011v.008ZM76.777 9.777h1.883c1.378 0 2.314.557 2.314 1.924 0 1.417-.97 2.084-2.192 2.084h-2.005V9.777ZM79.39 20.27h-2.606v-4.398h2.442c1.569 0 2.592.704 2.592 2.206s-1.023 2.192-2.415 2.192h-.013Zm-45.936-3.65 1.992-6.395 2.019 6.387h-4.011v.008Zm-12.99-1.935h-2.141V9.786h2.141c1.647 0 2.715.83 2.715 2.463 0 1.56-.968 2.433-2.715 2.433v.003Zm132.33-10.658c-1.003-.339-1.397-1.07-1.967-1.868a5.129 5.129 0 0 0-2.481-1.854c.472 1.516-.431 3.153-1.955 3.6a11.597 11.597 0 0 0-6.607 4.683 11.435 11.435 0 0 0-1.89 7.835 11.474 11.474 0 0 0 3.755 7.143 11.648 11.648 0 0 0 7.557 2.948 11.655 11.655 0 0 0 7.654-2.691 11.476 11.476 0 0 0 3.997-7.012 11.428 11.428 0 0 0-1.619-7.894 11.586 11.586 0 0 0-6.443-4.904l-.001.014Zm-3.381 18.446a5.24 5.24 0 0 1-3.69-1.516 5.157 5.157 0 0 1-1.528-3.66c0-1.373.55-2.69 1.528-3.66a5.24 5.24 0 0 1 3.69-1.516 5.24 5.24 0 0 1 3.69 1.516 5.155 5.155 0 0 1 1.529 3.66c0 1.373-.55 2.69-1.529 3.66a5.239 5.239 0 0 1-3.69 1.516Z"/></mask><path fill-rule="evenodd" clip-rule="evenodd" d="M7.158 20.412c-2.747 0-4.625-2.335-4.625-5.375 0-3.072 1.928-5.42 4.67-5.42 1.21 0 2.483.455 3.46 1.211l1.1-1.732c-1.274-1.103-3.059-1.712-4.75-1.712C3.024 7.384 0 10.706 0 15.094c0 4.303 2.93 7.582 6.925 7.582 1.706 0 3.602-.603 4.857-1.687l-1.119-1.777c-.93.713-2.25 1.2-3.506 1.2h.001Zm18.514-8.198c0-2.678-1.797-4.627-4.887-4.627h-4.922V22.46h2.455v-5.576h2.04l2.955 5.581h2.909l-3.356-5.94c1.766-.687 2.807-2.284 2.807-4.311h-.001Zm8.39-4.627-4.98 14.867h2.563l1.157-3.735h5.296l1.17 3.735h2.696L36.916 7.59h-2.865l.011-.003Zm21.02 1.84v-1.83h-9.883v2.162h6.747l-6.991 10.905v1.803h10.232v-2.189h-7.122l7.04-10.846-.023-.004Zm9.502 4.39-3.41-6.222h-2.852l4.966 8.679v6.184h2.47V16.26l5.063-8.673h-2.67l-3.565 6.225-.002.004Zm17.15.776c1.077-.595 1.691-1.674 1.691-3.14 0-2.436-1.678-3.856-4.475-3.856h-4.638v14.865h5.416c2.742 0 4.57-1.745 4.57-4.208 0-1.884-1.091-3.225-2.592-3.66h.028Zm11.038-6.996-4.98 14.865h2.56l1.16-3.735h5.293l1.173 3.735h2.701L95.641 7.597H92.772Zm19.76 6.996c1.081-.595 1.702-1.674 1.702-3.14 0-2.436-1.665-3.856-4.475-3.856h-4.639v14.865h5.43c2.742 0 4.584-1.745 4.584-4.208 0-1.884-1.091-3.225-2.578-3.66h-.024Zm11.638-.777-3.397-6.22h-2.865l4.966 8.68v6.188h2.476v-6.202l5.048-8.665h-2.661l-3.574 6.22h.007Zm-16.593-4.04h1.883c1.378 0 2.315.558 2.315 1.925 0 1.417-.968 2.084-2.196 2.084h-2.006V9.777h.004Zm2.613 10.494h-2.615v-4.398h2.438c1.564 0 2.592.704 2.592 2.206s-1.028 2.192-2.418 2.192h.003Zm-18.032-3.65 1.992-6.395 2.019 6.387h-4.011v.008ZM76.777 9.777h1.883c1.378 0 2.314.557 2.314 1.924 0 1.417-.97 2.084-2.192 2.084h-2.005V9.777ZM79.39 20.27h-2.606v-4.398h2.442c1.569 0 2.592.704 2.592 2.206s-1.023 2.192-2.415 2.192h-.013Zm-45.936-3.65 1.992-6.395 2.019 6.387h-4.011v.008Zm-12.99-1.935h-2.141V9.786h2.141c1.647 0 2.715.83 2.715 2.463 0 1.56-.968 2.433-2.715 2.433v.003Zm132.33-10.658c-1.003-.339-1.397-1.07-1.967-1.868a5.129 5.129 0 0 0-2.481-1.854c.472 1.516-.431 3.153-1.955 3.6a11.597 11.597 0 0 0-6.607 4.683 11.435 11.435 0 0 0-1.89 7.835 11.474 11.474 0 0 0 3.755 7.143 11.648 11.648 0 0 0 7.557 2.948 11.655 11.655 0 0 0 7.654-2.691 11.476 11.476 0 0 0 3.997-7.012 11.428 11.428 0 0 0-1.619-7.894 11.586 11.586 0 0 0-6.443-4.904l-.001.014Zm-3.381 18.446a5.24 5.24 0 0 1-3.69-1.516 5.157 5.157 0 0 1-1.528-3.66c0-1.373.55-2.69 1.528-3.66a5.24 5.24 0 0 1 3.69-1.516 5.24 5.24 0 0 1 3.69 1.516 5.155 5.155 0 0 1 1.529 3.66c0 1.373-.55 2.69-1.529 3.66a5.239 5.239 0 0 1-3.69 1.516Z" fill="#000" stroke="#000" stroke-width="2" mask="url('#path-1-inside-1_24223_3192')"/></svg>